<?xml version="1.0" encoding="UTF-8" standalone="no"?>
<!DOCTYPE svg PUBLIC "-//W3C//DTD SVG 1.1//EN"
 "http://www.w3.org/Graphics/SVG/1.1/DTD/svg11.dtd">
<!-- Generated by graphviz version 2.28.0 (20110507.0327)
 -->
<!-- Title: G Pages: 1 -->
<svg width="712pt" height="312pt"
 viewBox="0.00 0.00 712.00 312.00" xmlns="http://www.w3.org/2000/svg" xmlns:xlink="http://www.w3.org/1999/xlink">
<g id="graph1" class="graph" transform="scale(1 1) rotate(0) translate(4 308)">
<title>G</title>
<polygon fill="white" stroke="white" points="-4,5 -4,-308 709,-308 709,5 -4,5"/>
<g id="graph2" class="cluster"><title>cluster_Global</title>
<polyline fill="none" stroke="gray" points="20,-8 684,-8 "/>
<path fill="none" stroke="gray" d="M684,-8C690,-8 696,-14 696,-20"/>
<polyline fill="none" stroke="gray" points="696,-20 696,-284 "/>
<path fill="none" stroke="gray" d="M696,-284C696,-290 690,-296 684,-296"/>
<polyline fill="none" stroke="gray" points="684,-296 20,-296 "/>
<path fill="none" stroke="gray" d="M20,-296C14,-296 8,-290 8,-284"/>
<polyline fill="none" stroke="gray" points="8,-284 8,-20 "/>
<path fill="none" stroke="gray" d="M8,-20C8,-14 14,-8 20,-8"/>
<text text-anchor="middle" x="352" y="-283.2" font-family="Times New Roman,serif" font-size="11.00" fill="gray">\</text>
</g>
<!-- \\Lit_Http_View -->
<g id="node2" class="node"><title>\\Lit_Http_View</title>
<polygon fill="none" stroke="black" points="453,-266 369,-266 369,-230 453,-230 453,-266"/>
<text text-anchor="middle" x="411" y="-245.2" font-family="Times New Roman,serif" font-size="11.00">Lit_Http_View</text>
</g>
<!-- \\Lit_Result -->
<g id="node3" class="node"><title>\\Lit_Result</title>
<polygon fill="none" stroke="black" points="242.5,-253 179.5,-253 179.5,-217 242.5,-217 242.5,-253"/>
<text text-anchor="start" x="188" y="-238.7" font-family="Times New Roman,serif" font-size="11.00">«abstract»</text>
<text text-anchor="start" x="188" y="-227.7" font-family="Times New Roman,serif" font-size="11.00">Lit_Result</text>
</g>
<!-- \\Lit_Http_View&#45;&gt;\\Lit_Result -->
<g id="edge3" class="edge"><title>\\Lit_Http_View&#45;&gt;\\Lit_Result</title>
<path fill="none" stroke="black" d="M368.974,-245.306C334.893,-243.069 286.66,-239.902 252.676,-237.671"/>
<polygon fill="none" stroke="black" points="252.826,-234.173 242.619,-237.01 252.368,-241.158 252.826,-234.173"/>
</g>
<!-- \\Lit_Object -->
<g id="node9" class="node"><title>\\Lit_Object</title>
<polygon fill="none" stroke="black" points="80,-196 16,-196 16,-160 80,-160 80,-196"/>
<text text-anchor="middle" x="48" y="-175.2" font-family="Times New Roman,serif" font-size="11.00">Lit_Object</text>
</g>
<!-- \\Lit_Result&#45;&gt;\\Lit_Object -->
<g id="edge5" class="edge"><title>\\Lit_Result&#45;&gt;\\Lit_Object</title>
<path fill="none" stroke="black" d="M179.338,-224.145C153.875,-215.13 117.443,-202.231 89.5673,-192.362"/>
<polygon fill="none" stroke="black" points="90.6908,-189.047 80.0961,-189.009 88.3546,-195.646 90.6908,-189.047"/>
</g>
<!-- \\Lit_Http_View_Template -->
<g id="node4" class="node"><title>\\Lit_Http_View_Template</title>
<polygon fill="none" stroke="black" points="686,-268 554,-268 554,-232 686,-232 686,-268"/>
<text text-anchor="start" x="597" y="-253.7" font-family="Times New Roman,serif" font-size="11.00">«abstract»</text>
<text text-anchor="start" x="562.5" y="-242.7" font-family="Times New Roman,serif" font-size="11.00">Lit_Http_View_Template</text>
</g>
<!-- \\Lit_Http_View_Template&#45;&gt;\\Lit_Http_View -->
<g id="edge7" class="edge"><title>\\Lit_Http_View_Template&#45;&gt;\\Lit_Http_View</title>
<path fill="none" stroke="black" d="M553.788,-249.37C524.575,-249.088 490.625,-248.76 463.271,-248.495"/>
<polygon fill="none" stroke="black" points="463.167,-244.994 453.133,-248.397 463.099,-251.994 463.167,-244.994"/>
</g>
<!-- \\Lit_Http_Conversation -->
<g id="node5" class="node"><title>\\Lit_Http_Conversation</title>
<polygon fill="none" stroke="black" points="270,-196 152,-196 152,-160 270,-160 270,-196"/>
<text text-anchor="middle" x="211" y="-175.2" font-family="Times New Roman,serif" font-size="11.00">Lit_Http_Conversation</text>
</g>
<!-- \\Lit_Http_Conversation&#45;&gt;\\Lit_Object -->
<g id="edge9" class="edge"><title>\\Lit_Http_Conversation&#45;&gt;\\Lit_Object</title>
<path fill="none" stroke="black" d="M151.875,-178C131.602,-178 109.272,-178 90.6122,-178"/>
<polygon fill="none" stroke="black" points="90.3768,-174.5 80.3768,-178 90.3767,-181.5 90.3768,-174.5"/>
</g>
<!-- \\Lit_Autoloader -->
<g id="node6" class="node"><title>\\Lit_Autoloader</title>
<polygon fill="none" stroke="black" points="661.5,-214 578.5,-214 578.5,-178 661.5,-178 661.5,-214"/>
<text text-anchor="middle" x="620" y="-193.2" font-family="Times New Roman,serif" font-size="11.00">Lit_Autoloader</text>
</g>
<!-- \\Lit_Route_Manager_Basic -->
<g id="node7" class="node"><title>\\Lit_Route_Manager_Basic</title>
<polygon fill="none" stroke="black" points="479.5,-187 342.5,-187 342.5,-151 479.5,-151 479.5,-187"/>
<text text-anchor="middle" x="411" y="-166.2" font-family="Times New Roman,serif" font-size="11.00">Lit_Route_Manager_Basic</text>
</g>
<!-- \\Lit_Route_Base -->
<g id="node11" class="node"><title>\\Lit_Route_Base</title>
<polygon fill="none" stroke="black" points="256,-135 166,-135 166,-99 256,-99 256,-135"/>
<text text-anchor="start" x="188" y="-120.7" font-family="Times New Roman,serif" font-size="11.00">«abstract»</text>
<text text-anchor="start" x="174.5" y="-109.7" font-family="Times New Roman,serif" font-size="11.00">Lit_Route_Base</text>
</g>
<!-- \\Lit_Route_Manager_Basic&#45;&gt;\\Lit_Route_Base -->
<g id="edge11" class="edge"><title>\\Lit_Route_Manager_Basic&#45;&gt;\\Lit_Route_Base</title>
<path fill="none" stroke="black" d="M342.413,-151.25C317.515,-144.711 289.659,-137.395 266.105,-131.209"/>
<polygon fill="none" stroke="black" points="266.856,-127.788 256.294,-128.633 265.077,-134.558 266.856,-127.788"/>
</g>
<!-- \\Lit_Route_Manager_Child -->
<g id="node8" class="node"><title>\\Lit_Route_Manager_Child</title>
<polygon fill="none" stroke="black" points="687.5,-160 552.5,-160 552.5,-124 687.5,-124 687.5,-160"/>
<text text-anchor="middle" x="620" y="-139.2" font-family="Times New Roman,serif" font-size="11.00">Lit_Route_Manager_Child</text>
</g>
<!-- \\Lit_Route_Manager_Child&#45;&gt;\\Lit_Route_Manager_Basic -->
<g id="edge13" class="edge"><title>\\Lit_Route_Manager_Child&#45;&gt;\\Lit_Route_Manager_Basic</title>
<path fill="none" stroke="black" d="M552.364,-150.692C532.355,-153.301 510.232,-156.187 489.58,-158.881"/>
<polygon fill="none" stroke="black" points="489.039,-155.422 479.576,-160.186 489.945,-162.363 489.039,-155.422"/>
</g>
<!-- \\Lit_App -->
<g id="node10" class="node"><title>\\Lit_App</title>
<polygon fill="none" stroke="black" points="647,-106 593,-106 593,-70 647,-70 647,-106"/>
<text text-anchor="middle" x="620" y="-85.2" font-family="Times New Roman,serif" font-size="11.00">Lit_App</text>
</g>
<!-- \\Lit_Route_Base&#45;&gt;\\Lit_Object -->
<g id="edge15" class="edge"><title>\\Lit_Route_Base&#45;&gt;\\Lit_Object</title>
<path fill="none" stroke="black" d="M165.58,-133.83C141.799,-142.84 112.721,-153.857 89.5552,-162.634"/>
<polygon fill="none" stroke="black" points="88.1328,-159.43 80.0216,-166.246 90.613,-165.976 88.1328,-159.43"/>
</g>
<!-- \\Lit_Route_Regex -->
<g id="node12" class="node"><title>\\Lit_Route_Regex</title>
<polygon fill="none" stroke="black" points="458.5,-133 363.5,-133 363.5,-97 458.5,-97 458.5,-133"/>
<text text-anchor="middle" x="411" y="-112.2" font-family="Times New Roman,serif" font-size="11.00">Lit_Route_Regex</text>
</g>
<!-- \\Lit_Route_Regex&#45;&gt;\\Lit_Route_Base -->
<g id="edge17" class="edge"><title>\\Lit_Route_Regex&#45;&gt;\\Lit_Route_Base</title>
<path fill="none" stroke="black" d="M363.327,-115.471C334.258,-115.765 296.741,-116.144 266.336,-116.451"/>
<polygon fill="none" stroke="black" points="266.284,-112.951 256.32,-116.552 266.355,-119.951 266.284,-112.951"/>
</g>
<!-- \\Lit_Route_Any -->
<g id="node13" class="node"><title>\\Lit_Route_Any</title>
<polygon fill="none" stroke="black" points="454,-79 368,-79 368,-43 454,-43 454,-79"/>
<text text-anchor="middle" x="411" y="-58.2" font-family="Times New Roman,serif" font-size="11.00">Lit_Route_Any</text>
</g>
<!-- \\Lit_Route_Any&#45;&gt;\\Lit_Route_Base -->
<g id="edge19" class="edge"><title>\\Lit_Route_Any&#45;&gt;\\Lit_Route_Base</title>
<path fill="none" stroke="black" d="M367.524,-73.0134C337.763,-81.4305 297.754,-92.7463 265.769,-101.793"/>
<polygon fill="none" stroke="black" points="264.79,-98.432 256.12,-104.522 266.695,-105.168 264.79,-98.432"/>
</g>
<!-- \\Lit_ITemplate -->
<g id="node14" class="node"><title>\\Lit_ITemplate</title>
<polygon fill="none" stroke="black" points="660,-52 580,-52 580,-16 660,-16 660,-52"/>
<text text-anchor="middle" x="620" y="-31.2" font-family="Times New Roman,serif" font-size="11.00">Lit_ITemplate</text>
</g>
</g>
</svg>
